<svg xmlns="http://www.w3.org/2000/svg" width="544.57" height="249.884" viewBox="0 0 544.57 249.884">
  <g id="Group_2086" data-name="Group 2086" transform="translate(-544.81 -326.336)">
    <path id="path16" d="M821.828-2009.531s66.907-58.316,11.315-121.449C783.819-2187,726.311-2183.17,684.12-2160.437c-17.97,9.682-69.782,1.193-113.879-55.807-60.136-77.732-268.592-30.589-230.584,89,18.393,57.874-55.978,59.979-18.083,117.83l500.254-.122" transform="translate(234.156 2580.628)" fill="rgba(223,235,242,0.3)"/>
    <g id="Group_2085" data-name="Group 2085" transform="translate(0 -20)">
      <g id="Group_2084" data-name="Group 2084" transform="translate(27 -0.545)">
        <g id="Group_2083" data-name="Group 2083" transform="translate(22346.252 -4359.934)">
          <path id="path496" d="M942.006-808.8h5.141v-90.528h-5.141V-808.8" transform="translate(-22527.287 5753.429)" fill="#ff9e55"/>
          <path id="path498" d="M903.694-902.218h12.787a3.777,3.777,0,0,0,3.777-3.777h0a3.777,3.777,0,0,0-3.777-3.777H903.694a3.777,3.777,0,0,0-3.777,3.777h0a3.777,3.777,0,0,0,3.777,3.777" transform="translate(-22498.686 5760.524)" fill="#2a4e96"/>
          <path id="path500" d="M957.06-758.065c.623.055,27.73,16.081,27.73,16.081V-718.6h-28.2l.467-39.466" transform="translate(-22537.201 5657.426)" fill="#ff9e55"/>
          <path id="path502" d="M1418.73-629.605a7.661,7.661,0,0,0-7.66-7.66,7.661,7.661,0,0,0-7.66,7.66,7.661,7.661,0,0,0,7.66,7.66,7.661,7.661,0,0,0,7.66-7.66" transform="translate(-22840.852 5575.333)" fill="#124159"/>
          <path id="path504" d="M1421.939-623.534a4.8,4.8,0,0,0-4.8-4.8,4.8,4.8,0,0,0-4.8,4.8,4.8,4.8,0,0,0,4.8,4.8,4.8,4.8,0,0,0,4.8-4.8" transform="translate(-22846.922 5569.262)" fill="#00334e"/>
          <path id="path506" d="M942.006-631.405h166.378v-6.887H942.006v6.887" transform="translate(-22527.287 5576.031)" fill="#ff9e55"/>
          <path id="path508" d="M944.369-653.433a12.206,12.206,0,0,0-12.206-12.206,12.206,12.206,0,0,0-12.206,12.206,12.206,12.206,0,0,0,12.206,12.206,12.206,12.206,0,0,0,12.206-12.206" transform="translate(-22512.303 5594.615)" fill="#124159"/>
          <path id="path510" d="M949.481-643.755a7.644,7.644,0,0,0-7.646-7.643,7.644,7.644,0,0,0-7.646,7.643,7.645,7.645,0,0,0,7.646,7.647,7.645,7.645,0,0,0,7.646-7.647" transform="translate(-22521.977 5584.938)" fill="#00334e"/>
          <path id="path514" d="M829.128-1008.786c.841-1.769.018-2.439.018-2.439s-17.171-10.616-18.548-11.727-9.323-20.37-9.323-20.37-2.868-7.835-7.59-8.207c-4.1-.325-6.659,1.97-8.217,4.5a8.619,8.619,0,0,0,.49,9.7c4.788,6.349,14.423,18.934,17.055,20.976,5.858,4.541,24.347,9.745,24.347,9.745a6.138,6.138,0,0,0,1.768-2.179" transform="translate(-22420.051 5856.881)" fill="#124159"/>
          <path id="path516" d="M779.612-612.528H763.153a1.349,1.349,0,0,1-.349-.1c-1.1-.551-.754-4.755-.622-6.058.025-.239.044-.38.044-.38s5.788-4.631,6.584-1.085c.025.111.054.218.085.325v0c1,3.315,5.5,4.823,8.091,5.242,1.982.32,2.5,1.478,2.628,2.055" transform="translate(-22404.975 5564.613)" fill="#2c3a64"/>
          <path id="path518" d="M784.329-1092.473s3.916,6.387,10.353,4.939a18.62,18.62,0,0,0,2.158-5.293c.046-.286.091-.564.136-.829.43-2.619.742-4.08.742-4.08s0,0-.006,0c-.259-.154-8.714-5.225-8.753-4.913-.921,7.122-4.63,10.181-4.63,10.181" transform="translate(-22420.133 5891.613)" fill="#ffb27d"/>
          <path id="path520" d="M800.8-1097.026a14.264,14.264,0,0,0,7.368,7.169c.43-2.619.742-4.08.742-4.08s0,0-.006,0c-.239-.1-8.291-3.6-8.1-3.084" transform="translate(-22431.322 5887.814)" fill="#ed975d"/>
          <path id="path540" d="M897.377-917.313s5.626,3.012,5.938,4.1.312,5.3-1.246,5.3-3.193-3.584-3.895-3.661-2.586-.972-2.82-1.831a14,14,0,0,0,1.848-2.477" transform="translate(-22487.973 5763.584)" fill="#ffb27d"/>
          <path id="path522" d="M807.922-1124.415s-10.5.846-10.927-5.7-2.07-10.847,4.616-11.667,8.153,1.6,8.827,3.747.2,13.231-2.516,13.62" transform="translate(-22428.408 5918.305)" fill="#ffb27d"/>
          <path id="path524" d="M786.48-1138.692c-.152.068-2.435.41-5.319-8.446a7.25,7.25,0,0,1,1.415-6.494c1.886-2.243,7.541-3.371,12.123-3.542s5.271,2.5,5.939,5.178c.7,2.811,3.55,5.469,3.55,5.469-4.166,1.563-8.326-2.209-10.006-1.944s-2.627,2.7-2.87,3.49-.529,1.44-2.435.41-1.344,2.717-1.125,3.452c0,0,0,1.863-1.271,2.427" transform="translate(-22417.809 5928.66)" fill="#00334e"/>
          <path id="path526" d="M654.41-626.048H648.2c-1.3,0-2.748-1.3-3.11-3.691s-3.038-3.687-3.617-5.639,2.388-4.7,2.388-4.7l.5-.636.516-.667,4.919,1.158s.121,1.171.2,2.662c.052,1.077.081,2.324.02,3.413-.145,2.606.73,5.409,3.044,5.917s1.357,2.187,1.357,2.187" transform="translate(-22323 5578.133)" fill="#2c3a64"/>
          <path id="path528" d="M754.473-892.97s-.879,10.967-1.912,24.146c-1.4,17.909-3.093,39.907-3.26,44.072-.288,7.237-1.447,18.811-1.447,18.811s-2.748,2.751-8.247,1.589a189.281,189.281,0,0,1-6.3-34c-.021-.286-.043-.577-.065-.863-1.3-17.8-3.327-55.274-3.327-55.274l24.559,1.521" transform="translate(-22383.154 5750.14)" fill="#ee6f57"/>
          <path id="path530" d="M750.036-890.8s1.731,3.948-1.434,16.786c-2.322,9.42-15.3,35.664-15.3,35.664-.021-.286-.043-.577-.065-.863-1.3-17.8-3.327-55.274-3.327-55.274l20.122,3.687" transform="translate(-22383.154 5750.14)" fill="#df614a"/>
          <path id="path532" d="M696.266-902.907s-16.583,41.748-27,60.413-13.673,23.873-13.673,23.873-5.968-2.388-6.511-4.016c0,0,3.984-36.032,10.96-44.815,3.942-4.964,8.573-19.857,8.79-25.069s1.411-15.517,1.411-15.517l26.023,5.131" transform="translate(-22328.223 5759.346)" fill="#ee6f57"/>
          <path id="path534" d="M746.781-1017.142c-2.237-.632-27.47-5.529-27.025-6.819,1.546-4.5,5.566-16.139,7.475-25.376q.539-2.576,1.2-5.067a78.722,78.722,0,0,1,4.128-11.911c2.952-6.588,7.745-11.056,11.578-12.581.5-.188,1.547,1.388,3.6,3.191,1.9,1.666,3.866,1.632,6.045,1.773l1.758,3.114a25.368,25.368,0,0,1,2.8,9.578s-8.987,43.108-9.187,43.057" transform="translate(-22377.895 5875.469)" fill="#00334e"/>
          <path id="path538" d="M791.4-1071.037c-.993-1.88-4.4-7.276-4.4-7.276l1.188-.551c.675.085,4.268,5.447,5.386,7.459,1.346,2.422,4.785,10,4.785,10l-2.8-.534s-3-6.887-4.165-9.1" transform="translate(-22421.953 5875.437)" fill="#ee6f57"/>
          <path id="path540-2" data-name="path540" d="M897.123-916.638s5.88,2.337,6.192,3.426.312,5.3-1.246,5.3-3.193-3.584-3.895-3.661-2.648-.543-2.882-1.4,1.831-3.661,1.831-3.661" transform="translate(-22495.529 5765.19)" fill="#ffb27d"/>
          <path id="path542" d="M805.713-999.746c.841-1.769.018-2.439.018-2.439s-17.17-10.612-18.548-11.727-9.323-20.37-9.323-20.37-2.869-7.831-7.59-8.207c-4.1-.325-6.659,1.969-8.217,4.5a8.619,8.619,0,0,0,.49,9.7c4.788,6.348,14.423,18.934,17.055,20.976,5.858,4.541,24.347,9.745,24.347,9.745a6.138,6.138,0,0,0,1.768-2.179" transform="translate(-22404.137 5850.738)" fill="#00334e"/>
        </g>
      </g>
    </g>
    <path id="path168" d="M746.306-415.346H247.366c-.312,0-.567-.384-.567-.854v-.292c0-.47.255-.854.567-.854h498.94c.312,0,.567.384.567.854v.292c0,.47-.255.854-.567.854" transform="translate(309.2 988.565)" fill="#2e3552"/>
    <g id="Group_2088" data-name="Group 2088" transform="translate(435.841 2290.584)">
      <path id="path164" d="M140.415-1600.212l-17.256-3.645v-8.646l17.256,2.47v9.821" transform="translate(0 -116.998)" fill="#d3b875"/>
      <path id="path166" d="M459.051-1650.733l-22.549,4.641-.057-10.174,22.606-3.677v9.21" transform="translate(-296.087 -70.765)" fill="#b78c58"/>
      <path id="path168-2" data-name="path168" d="M123.16-1729.5l17.2,2.47,22.606-3.677-17.661-1.848L123.16-1729.5" transform="translate(0)" fill="#f2d08b"/>
      <path id="path170" d="M624.063-1650.733l-13.021-1.857v-5.234l13.021-2.118v9.21" transform="translate(-461.099 -70.765)" fill="#b79e67"/>
      <path id="path172" d="M437.482-1571.469l-10.082,1.857.5-5.533,9.585-1.559v5.234" transform="translate(-287.538 -151.887)" fill="#99744b"/>
      <path id="path174" d="M848.218-1687.074l8.029-.708v8.963l-8.029.956v-9.21" transform="translate(-685.254 -43.634)" fill="#f2d08b"/>
      <path id="path176" d="M249.249-1515.436l-10.874.574v10.474l10.93-.874-.057-10.174" transform="translate(-108.891 -211.595)" fill="#f2d08b"/>
      <path id="path178" d="M437.476-1293.342l10.3,2.492,19.555-5.657-7.3-1.477-22.549,4.641" transform="translate(-297.061 -423.514)" fill="#f2d08b"/>
      <path id="path180" d="M436.446-1656.266l5.979,3.453,21.448-4.123-4.822-3.007-22.606,3.677" transform="translate(-296.087 -70.765)" fill="#d3b875"/>
    </g>
    <text id="_" data-name="!" transform="translate(740.81 385.336)" fill="#00334e" font-size="33" font-family="Roboto-Medium, Roboto" font-weight="500" letter-spacing="0.02em"><tspan x="0" y="0">!</tspan></text>
  </g>
</svg>
