<svg xmlns="http://www.w3.org/2000/svg" width="12.411" height="6.205" viewBox="0 0 12.411 6.205">
  <g id="_255699_arrow_arrows_exchange_icon" data-name="255699_arrow_arrows_exchange_icon" transform="translate(0 -144)">
    <path id="Path_8329" data-name="Path 8329" d="M12.379,147.009l-2.236-2.943a.17.17,0,0,0-.135-.066h-1.7a.168.168,0,0,0-.148.085.154.154,0,0,0,.01.165L9.7,146.327H2.743l1.494-2.077a.154.154,0,0,0,.01-.165A.168.168,0,0,0,4.1,144H2.4a.17.17,0,0,0-.135.066L.032,147.009a.155.155,0,0,0,0,.188l2.236,2.943a.17.17,0,0,0,.135.066H4.1a.168.168,0,0,0,.148-.085.154.154,0,0,0-.01-.165l-1.494-2.077H9.669l-1.494,2.077a.155.155,0,0,0-.01.165.168.168,0,0,0,.148.085h1.7a.17.17,0,0,0,.135-.066l2.236-2.943A.155.155,0,0,0,12.379,147.009Z"/>
  </g>
</svg>
