<svg xmlns="http://www.w3.org/2000/svg" width="40.658" height="40.658" viewBox="0 0 40.658 40.658">
  <g id="layer1" transform="translate(0 -280.067)">
    <path id="path10598" d="M20.329,280.067A20.329,20.329,0,1,0,40.658,300.4a20.329,20.329,0,0,0-20.329-20.329Zm0,8.808a2.8,2.8,0,0,1,2.917,2.917l-1.435,11.216a1.482,1.482,0,1,1-2.965,0l-1.435-11.216a2.8,2.8,0,0,1,2.917-2.917Zm0,17.887a2.578,2.578,0,1,1-2.578,2.578A2.572,2.572,0,0,1,20.329,306.761Z" transform="translate(0 0)" fill="#adadad"/>
  </g>
</svg>
