<svg xmlns="http://www.w3.org/2000/svg" width="69.67" height="69.67" viewBox="0 0 69.67 69.67">
  <path id="_7641932_remove_circle_reject_fail_rejection_icon" data-name="7641932_remove_circle_reject_fail_rejection_icon" d="M34.835,0A34.835,34.835,0,1,0,69.67,34.835,34.835,34.835,0,0,0,34.835,0ZM50.772,46.667a2.9,2.9,0,1,1-4.105,4.105L35.346,39.451a.732.732,0,0,0-1.028,0L23,50.772a2.938,2.938,0,0,1-4.1,0,2.9,2.9,0,0,1,0-4.1L30.214,35.346a.723.723,0,0,0,0-1.025L18.892,23A2.9,2.9,0,0,1,23,18.9L34.324,30.219a.726.726,0,0,0,1.028,0L46.673,18.9a2.9,2.9,0,1,1,4.1,4.1L39.451,34.324a.723.723,0,0,0,0,1.025Z" fill="#ea4949"/>
</svg>
