<svg xmlns="http://www.w3.org/2000/svg" width="20" height="17.143" viewBox="0 0 20 17.143">
  <g id="_211677_image_icon" data-name="211677_image_icon" transform="translate(-32 -64)">
    <path id="Path_8358" data-name="Path 8358" d="M322.143,132.286A2.143,2.143,0,1,0,320,130.143,2.143,2.143,0,0,0,322.143,132.286Z" transform="translate(-275.143 -61.143)" fill="#3a3a3a"/>
    <path id="Path_8359" data-name="Path 8359" d="M50.75,64H33.25A1.254,1.254,0,0,0,32,65.263V79.879a1.254,1.254,0,0,0,1.25,1.263h17.5A1.254,1.254,0,0,0,52,79.879V65.263A1.254,1.254,0,0,0,50.75,64Zm-4.6,8.826a.767.767,0,0,0-.571-.277A.882.882,0,0,0,45,72.8l-.835.705a.838.838,0,0,1-.513.21.739.739,0,0,1-.491-.183c-.045-.04-.125-.116-.192-.183l-2.4-2.6a.984.984,0,0,0-.746-.335,1.014,1.014,0,0,0-.75.348L33.429,77.58V65.951a.589.589,0,0,1,.585-.522H49.982a.567.567,0,0,1,.576.536l.013,11.625Z" transform="translate(0 0)" fill="#3a3a3a"/>
  </g>
</svg>
