<svg xmlns="http://www.w3.org/2000/svg" width="12.01" height="12.011" viewBox="0 0 12.01 12.011">
  <g id="XMLID_2503_" transform="translate(-52.162 -52.1)">
    <g id="XMLID_2481_" transform="translate(52.162 52.1)">
      <g id="XMLID_18_" transform="translate(0)">
        <path id="XMLID_22_" d="M52.353,53.215l.287.287.781.781,1.15,1.15,1.4,1.4,1.541,1.541,1.556,1.556,1.447,1.447L61.741,62.6l.881.881c.138.138.277.278.417.417a.21.21,0,0,1,.017.017.656.656,0,0,0,.924,0,.658.658,0,0,0,.191-.462.686.686,0,0,0-.191-.462l-.287-.287-.781-.781-1.15-1.15-1.4-1.4-1.541-1.541-1.556-1.556-1.447-1.447-1.222-1.222-.881-.881c-.138-.138-.277-.278-.417-.417a.209.209,0,0,1-.017-.017.656.656,0,0,0-.924,0,.658.658,0,0,0-.191.462.674.674,0,0,0,.191.462Z" transform="translate(-52.162 -52.1)" fill="#747474"/>
      </g>
    </g>
    <g id="XMLID_2502_" transform="translate(52.162 52.101)">
      <g id="XMLID_12_" transform="translate(0 0)">
        <path id="XMLID_16_" d="M63.094,52.353l-.287.287-.781.781-1.15,1.15-1.4,1.4-1.541,1.541-1.556,1.556-1.447,1.447-1.222,1.222-.881.881c-.138.138-.278.277-.417.417a.21.21,0,0,1-.017.017.656.656,0,0,0,0,.924.658.658,0,0,0,.462.191.686.686,0,0,0,.462-.191l.287-.287.781-.781,1.15-1.15,1.4-1.4,1.541-1.541,1.556-1.556,1.447-1.447L62.7,54.592l.881-.881c.138-.138.278-.277.417-.417a.209.209,0,0,1,.017-.017.656.656,0,0,0,0-.924.658.658,0,0,0-.462-.191.674.674,0,0,0-.462.191Z" transform="translate(-52.2 -52.162)" fill="#747474"/>
      </g>
    </g>
  </g>
</svg>
