<svg xmlns="http://www.w3.org/2000/svg" width="14.829" height="15.592" viewBox="0 0 14.829 15.592">
  <g id="_5278945_back_logistics_order_packaging_refund_icon" data-name="5278945_back_logistics_order_packaging_refund_icon" transform="translate(-5.528 -2.65)">
    <path id="Path_26" data-name="Path 26" d="M21.885,2.9A7.5,7.5,0,0,0,15.76,6.08a.185.185,0,0,0,.3.213,7.115,7.115,0,1,1,2.9,10.583c-.182-.082-.362-.173-.537-.271a.185.185,0,1,0-.181.324c.184.1.374.2.566.285A7.488,7.488,0,1,0,21.885,2.9Z" transform="translate(-9.37)" stroke="#000" stroke-width="0.5"/>
    <path id="Path_27" data-name="Path 27" d="M11.23,22.823a.515.515,0,0,0,.59.427l.957-.154a.185.185,0,0,0-.059-.366l-.957.155a.145.145,0,0,1-.166-.12l-.154-.957a.185.185,0,0,0-.366.059Z" transform="translate(-5.293 -16.439)" stroke="#000" stroke-width="0.5"/>
    <path id="Path_28" data-name="Path 28" d="M29.064,22.844l.022-.013,4.749-2.4h0l-1.427-.752a.409.409,0,0,0-.382,0l-4.5,2.373-.016.01Z" transform="translate(-19.699 -14.661)"/>
    <path id="Path_29" data-name="Path 29" d="M51.908,34.6l1.594.807a.225.225,0,0,0,.2,0l4.608-2.332-.016-.01L56.65,32.2l-4.72,2.389Z" transform="translate(-41.083 -25.681)"/>
    <path id="Path_30" data-name="Path 30" d="M67.217,44.2a.584.584,0,0,1-.084.034V49.9l.006,0,4.5-2.372a.412.412,0,0,0,.217-.362V41.887c0-.012,0-.025,0-.037Z" transform="translate(-54.427 -34.139)"/>
    <path id="Path_31" data-name="Path 31" d="M30.6,44.225a.573.573,0,0,1-.083-.034l-1.627-.823a.372.372,0,0,0,0,.038v2.117a.2.2,0,0,1-.352.141l-.405-.422a.2.2,0,0,0-.19-.059l-.264.057a.2.2,0,0,1-.248-.2V42.667c0-.012,0-.025,0-.037l-1.554-.786c0,.012,0,.025,0,.038v5.278a.411.411,0,0,0,.219.362l4.5,2.372.005,0Z" transform="translate(-18.261 -34.133)"/>
  </g>
</svg>
