<svg id="logo-final" xmlns="http://www.w3.org/2000/svg" width="163.839" height="24.373" viewBox="0 0 163.839 24.373">
  <g id="logo-mark" transform="translate(0 0)">
    <path id="Path" d="M21.833,11.274A30.459,30.459,0,0,1,11.626,8.849,25.946,25.946,0,0,1,4.556,4c-.936,2.8-.7,5.036.8,6.714Q4.158,15.82,7.6,17.848c.656,4.1,3.231,5.968,7.725,5.548a27.2,27.2,0,0,0,6.508-1.539Z" transform="translate(-3.074 -3.074)" fill="#f8f8f8"/>
    <path id="Path-2" data-name="Path" d="M5.539,4.886c-.328-.28-.656-.606-.983-.886-.936,2.8-.7,5.036.8,6.714Q4.158,15.82,7.6,17.848c.656,4.1,3.231,5.968,7.725,5.548a27.2,27.2,0,0,0,6.508-1.539V20.832a29.644,29.644,0,0,1-5.01,1.026c-4.495.42-7.07-1.445-7.725-5.548Q5.656,14.281,6.85,9.175a5.519,5.519,0,0,1-1.311-4.29Z" transform="translate(-3.074 -3.074)" fill="#f1f1f1"/>
    <path id="Path-3" data-name="Path" d="M97,11.274a30.739,30.739,0,0,0,10.213-2.425A25.013,25.013,0,0,0,114.24,4c.984,2.8.749,5.036-.75,6.714q1.195,5.106-2.249,7.134c-.656,4.1-3.233,5.968-7.73,5.548A27.228,27.228,0,0,1,97,21.858Z" transform="translate(-74.535 -3.074)" fill="#f8f8f8"/>
    <path id="Path-4" data-name="Path" d="M113.3,4.886c.328-.28.656-.606.937-.886.984,2.8.749,5.036-.75,6.714q1.195,5.106-2.249,7.134c-.656,4.1-3.233,5.968-7.73,5.548A27.228,27.228,0,0,1,97,21.858V20.832a28.745,28.745,0,0,0,5.013,1.026c4.451.42,7.074-1.445,7.73-5.548q3.373-2.028,2.249-7.134a5.7,5.7,0,0,0,1.312-4.29Z" transform="translate(-74.535 -3.074)" fill="#f1f1f1"/>
    <path id="Path-5" data-name="Path" d="M5.315,10.422a.822.822,0,0,1-.306-.061C.543,8.522-.978,5.125.612.536A.8.8,0,0,1,1.927.226,25.371,25.371,0,0,0,8.808,4.937.793.793,0,0,1,9.186,6a.806.806,0,0,1-1.065.377A27.354,27.354,0,0,1,1.778,2.253c-.706,3.152.536,5.278,3.843,6.639a.795.795,0,0,1-.306,1.53Z" transform="translate(0 0)" fill="#2f2f2f"/>
    <path id="Path-6" data-name="Path" d="M10.931,38.727a.779.779,0,0,1-.159-.018,7.144,7.144,0,0,1-4.833-2.931c-.984-1.548-1.2-3.619-.627-6.156a.776.776,0,0,1,.94-.6.794.794,0,0,1,.592.95c-.471,2.105-.331,3.769.417,4.943a5.666,5.666,0,0,0,3.83,2.237.8.8,0,0,1-.159,1.574Z" transform="translate(-3.842 -22.284)" fill="#2f2f2f"/>
    <path id="Path-7" data-name="Path" d="M23.307,67.179c-4.13,0-6.642-2.146-7.3-6.264a.791.791,0,0,1,1.562-.247c.59,3.706,2.77,5.247,6.827,4.875a.791.791,0,1,1,.148,1.575Q23.9,67.179,23.307,67.179Z" transform="translate(-12.294 -46.104)" fill="#2f2f2f"/>
    <path id="Path-8" data-name="Path" d="M140.956,10.422a.8.8,0,0,1-.739-.491.792.792,0,0,1,.433-1.038c3.322-1.364,4.556-3.489,3.818-6.635a26.621,26.621,0,0,1-6.323,4.115A.809.809,0,0,1,137.078,6a.793.793,0,0,1,.38-1.059,24.4,24.4,0,0,0,6.84-4.7.8.8,0,0,1,1.32.3c1.643,4.587.138,7.988-4.355,9.833A.825.825,0,0,1,140.956,10.422Z" transform="translate(-105.271 0)" fill="#2f2f2f"/>
    <path id="Path-9" data-name="Path" d="M143.779,38.727a.784.784,0,0,1-.762-.636.792.792,0,0,1,.607-.937,5.681,5.681,0,0,0,3.848-2.245c.742-1.172.882-2.833.414-4.935a.794.794,0,0,1,.588-.95.767.767,0,0,1,.933.6c.565,2.535.354,4.6-.625,6.147a7.137,7.137,0,0,1-4.846,2.939A.767.767,0,0,1,143.779,38.727Z" transform="translate(-109.882 -22.284)" fill="#2f2f2f"/>
    <path id="Path-10" data-name="Path" d="M122.957,67.18q-.6,0-1.24-.061a.791.791,0,1,1,.148-1.574c4.06.372,6.236-1.169,6.827-4.874a.791.791,0,0,1,1.562.247C129.6,65.033,127.086,67.18,122.957,67.18Z" transform="translate(-92.977 -46.104)" fill="#2f2f2f"/>
    <path id="Path-11" data-name="Path" d="M60.748,15H38.875a.827.827,0,0,0-.875.876v18.4a.827.827,0,0,0,.875.876H60.748a.827.827,0,0,0,.875-.876v-18.4A.827.827,0,0,0,60.748,15Z" transform="translate(-29.199 -11.526)" fill="#ff6363" stroke="#2f2f2f" stroke-width="1.5"/>
    <rect id="Rectangle" width="7.874" height="6.716" transform="translate(16.675 3.706)" fill="#df4d4d" stroke="#2f2f2f" stroke-width="1.5"/>
  </g>
  <g id="InstaShipin" transform="translate(54.564 4.028)">
    <g id="Group_690" data-name="Group 690" transform="translate(0)">
      <path id="ShipDelight" d="M227.8,28.33a3.067,3.067,0,0,0-1.133-.872,3.38,3.38,0,0,0-1.474-.351,3.625,3.625,0,0,0-.882.11,2.689,2.689,0,0,0-.8.341,1.885,1.885,0,0,0-.592.6,1.657,1.657,0,0,0-.231.892,1.593,1.593,0,0,0,.2.822,1.824,1.824,0,0,0,.551.582,3.751,3.751,0,0,0,.852.421q.5.18,1.1.361.682.221,1.414.5a5.474,5.474,0,0,1,1.343.742,3.676,3.676,0,0,1,1,1.163,3.544,3.544,0,0,1,.391,1.745,4.453,4.453,0,0,1-.421,2A4.117,4.117,0,0,1,228,38.8a4.788,4.788,0,0,1-1.644.842,6.92,6.92,0,0,1-1.985.281,7.452,7.452,0,0,1-2.707-.511A5.228,5.228,0,0,1,219.5,37.9l1.8-1.684a3.623,3.623,0,0,0,1.394,1.143,3.923,3.923,0,0,0,1.714.421,3.871,3.871,0,0,0,.9-.11,2.4,2.4,0,0,0,.832-.371,2.078,2.078,0,0,0,.6-.652,1.887,1.887,0,0,0,.231-.973,1.582,1.582,0,0,0-.261-.932,2.331,2.331,0,0,0-.7-.642,5.04,5.04,0,0,0-1.043-.471l-1.263-.421a12.524,12.524,0,0,1-1.283-.481,4.259,4.259,0,0,1-1.153-.742,3.587,3.587,0,0,1-.832-1.133,3.875,3.875,0,0,1-.321-1.674,3.67,3.67,0,0,1,.451-1.865,3.991,3.991,0,0,1,1.183-1.293,5.264,5.264,0,0,1,1.664-.762A7.268,7.268,0,0,1,225.315,25a6.75,6.75,0,0,1,2.2.381,5.364,5.364,0,0,1,1.935,1.143Zm9.906,1.323a3.622,3.622,0,0,1,1.614.331,3.183,3.183,0,0,1,1.1.872,3.532,3.532,0,0,1,.632,1.243,5.228,5.228,0,0,1,.2,1.444v6.016H238.85V34.266a6.6,6.6,0,0,0-.06-.872,2.513,2.513,0,0,0-.251-.822A1.64,1.64,0,0,0,238,31.96a1.621,1.621,0,0,0-.932-.241,2.135,2.135,0,0,0-1,.221,2.076,2.076,0,0,0-.7.592,2.643,2.643,0,0,0-.421.832,3.219,3.219,0,0,0-.14.942v5.254h-2.406V24.4H234.8v6.878h.04a2.312,2.312,0,0,1,.411-.592,3.242,3.242,0,0,1,.632-.521,3.308,3.308,0,0,1,.822-.371A3.429,3.429,0,0,1,237.707,29.654Zm6.8.281h2.406v9.625H244.5Zm-.341-3.268a1.386,1.386,0,0,1,.431-1.013,1.481,1.481,0,0,1,1.093-.431,1.591,1.591,0,0,1,1.113.411,1.407,1.407,0,0,1,0,2.065,1.591,1.591,0,0,1-1.113.411,1.481,1.481,0,0,1-1.093-.431A1.386,1.386,0,0,1,244.164,26.666Zm8.382,3.268v1.343h.06a3.485,3.485,0,0,1,.471-.571,3.115,3.115,0,0,1,.712-.521,4.566,4.566,0,0,1,.952-.381,4.381,4.381,0,0,1,1.193-.15,4.49,4.49,0,0,1,3.369,1.464,4.843,4.843,0,0,1,.962,1.6,5.684,5.684,0,0,1,.341,1.985,5.923,5.923,0,0,1-.331,2,4.895,4.895,0,0,1-.942,1.624,4.49,4.49,0,0,1-3.459,1.514A4.173,4.173,0,0,1,254,39.419a3.192,3.192,0,0,1-1.313-1.143h-.04v6.1H250.24V29.934Zm5.615,4.772a3.745,3.745,0,0,0-.17-1.113,3.114,3.114,0,0,0-.511-.993,2.568,2.568,0,0,0-.862-.712,2.62,2.62,0,0,0-1.223-.271,2.455,2.455,0,0,0-1.183.281,3.03,3.03,0,0,0-.892.722,3.079,3.079,0,0,0-.561,1,3.478,3.478,0,0,0-.19,1.123,3.389,3.389,0,0,0,.19,1.113,3.1,3.1,0,0,0,.561.993,2.9,2.9,0,0,0,.892.712,2.763,2.763,0,0,0,2.406-.01,2.676,2.676,0,0,0,.862-.722,3.1,3.1,0,0,0,.511-1A3.843,3.843,0,0,0,258.16,34.707Zm5.294-9.344h5.033a11.157,11.157,0,0,1,2.787.361,7.216,7.216,0,0,1,2.527,1.193,6.245,6.245,0,0,1,1.825,2.186,7.243,7.243,0,0,1,.7,3.359,6.847,6.847,0,0,1-.7,3.208,6.568,6.568,0,0,1-1.825,2.206,7.627,7.627,0,0,1-2.527,1.273,9.879,9.879,0,0,1-2.787.411h-5.033Zm4.632,11.991a8.574,8.574,0,0,0,1.965-.231,5.121,5.121,0,0,0,1.775-.782,4.161,4.161,0,0,0,1.293-1.494,5.05,5.05,0,0,0,.5-2.386,5.374,5.374,0,0,0-.5-2.486,4.033,4.033,0,0,0-1.293-1.5,4.815,4.815,0,0,0-1.775-.742,9.8,9.8,0,0,0-1.965-.2h-2.105v9.826Zm17.746-3.569a2.97,2.97,0,0,0-.13-.882,1.968,1.968,0,0,0-1.123-1.253,2.488,2.488,0,0,0-1.013-.19,2.7,2.7,0,0,0-1.835.652,2.376,2.376,0,0,0-.832,1.674Zm2.406,1.083v.321a2.59,2.59,0,0,1-.02.321H280.9a2.383,2.383,0,0,0,.271.952,2.424,2.424,0,0,0,.612.742,3.043,3.043,0,0,0,.862.491,2.832,2.832,0,0,0,1,.18,3.211,3.211,0,0,0,1.524-.331,2.854,2.854,0,0,0,1.023-.912l1.6,1.283a4.821,4.821,0,0,1-4.131,1.925,5.873,5.873,0,0,1-2.065-.351,4.874,4.874,0,0,1-1.634-.993,4.472,4.472,0,0,1-1.083-1.574,5.425,5.425,0,0,1-.391-2.115,5.52,5.52,0,0,1,.391-2.115,4.71,4.71,0,0,1,2.687-2.667,5.4,5.4,0,0,1,2.015-.371,5.082,5.082,0,0,1,1.855.331,4.023,4.023,0,0,1,1.474.983,4.556,4.556,0,0,1,.973,1.624A6.7,6.7,0,0,1,288.239,34.867ZM291.006,24.4h2.406V39.559h-2.406Zm5.775,5.534h2.406v9.625h-2.406Zm-.341-3.268a1.386,1.386,0,0,1,.431-1.013,1.481,1.481,0,0,1,1.093-.431,1.592,1.592,0,0,1,1.113.411,1.408,1.408,0,0,1,0,2.065,1.592,1.592,0,0,1-1.113.411,1.481,1.481,0,0,1-1.093-.431A1.386,1.386,0,0,1,296.44,26.666ZM312.3,29.934V38.7a8.066,8.066,0,0,1-.321,2.356,4.564,4.564,0,0,1-.993,1.785,4.475,4.475,0,0,1-1.694,1.133,6.638,6.638,0,0,1-2.426.4,8.137,8.137,0,0,1-1.233-.1,8.5,8.5,0,0,1-1.283-.3,7.722,7.722,0,0,1-1.213-.5,5.845,5.845,0,0,1-1.043-.682l1.384-1.865a4.967,4.967,0,0,0,1.584,1.013,4.792,4.792,0,0,0,1.785.351,3.731,3.731,0,0,0,1.454-.251,2.343,2.343,0,0,0,.943-.692,2.7,2.7,0,0,0,.5-1.043,5.453,5.453,0,0,0,.15-1.323v-.7h-.04a3.383,3.383,0,0,1-1.334,1.073,4.319,4.319,0,0,1-1.815.371,4.7,4.7,0,0,1-1.965-.4,4.456,4.456,0,0,1-1.494-1.083,4.96,4.96,0,0,1-.952-1.594,5.485,5.485,0,0,1-.341-1.935,5.778,5.778,0,0,1,.331-1.965,4.8,4.8,0,0,1,.943-1.6,4.481,4.481,0,0,1,1.484-1.083,4.627,4.627,0,0,1,1.955-.4,4.365,4.365,0,0,1,1.9.421,3.216,3.216,0,0,1,1.4,1.3h.04V29.934Zm-5.133,1.684a2.725,2.725,0,0,0-1.173.241,2.539,2.539,0,0,0-.862.652,2.926,2.926,0,0,0-.541.973,3.72,3.72,0,0,0-.191,1.2,3.358,3.358,0,0,0,.191,1.123,3.217,3.217,0,0,0,.541.973,2.649,2.649,0,0,0,.862.692,2.5,2.5,0,0,0,1.153.261,2.729,2.729,0,0,0,2.1-.922,3.017,3.017,0,0,0,.571-.973,3.346,3.346,0,0,0,.2-1.153,3.49,3.49,0,0,0-.2-1.183,3,3,0,0,0-.571-.983,2.661,2.661,0,0,0-.892-.662A2.791,2.791,0,0,0,307.168,31.619Zm13.776-1.965a3.622,3.622,0,0,1,1.614.331,3.182,3.182,0,0,1,1.1.872,3.532,3.532,0,0,1,.632,1.243,5.228,5.228,0,0,1,.2,1.444v6.016h-2.406V34.266a6.623,6.623,0,0,0-.06-.872,2.516,2.516,0,0,0-.251-.822,1.64,1.64,0,0,0-.541-.612,1.622,1.622,0,0,0-.932-.241,2.134,2.134,0,0,0-1,.221,2.076,2.076,0,0,0-.7.592,2.646,2.646,0,0,0-.421.832,3.218,3.218,0,0,0-.14.942v5.254H315.63V24.4h2.406v6.878h.04a2.315,2.315,0,0,1,.411-.592,3.245,3.245,0,0,1,.632-.521,3.309,3.309,0,0,1,.822-.371A3.429,3.429,0,0,1,320.944,29.654Zm5.374,2.206V29.934H328V27.147h2.366v2.787h2.406v1.925h-2.406v4.472a2.195,2.195,0,0,0,.231,1.063q.231.421,1.033.421a2.977,2.977,0,0,0,.521-.05,2.1,2.1,0,0,0,.5-.15l.08,1.885a3.952,3.952,0,0,1-.762.19,5.375,5.375,0,0,1-.842.07,3.842,3.842,0,0,1-1.564-.271,2.371,2.371,0,0,1-.952-.742,2.743,2.743,0,0,1-.481-1.083,6.3,6.3,0,0,1-.13-1.313V31.859Z" transform="translate(-223.5 -24.4)" fill="#3a3a3a"/>
    </g>
  </g>
</svg>
