<svg xmlns="http://www.w3.org/2000/svg" width="69.674" height="69.674" viewBox="0 0 69.674 69.674">
  <g id="图层_x0020_1" transform="translate(0 0)">
    <circle id="Ellipse_13" data-name="Ellipse 13" cx="34.837" cy="34.837" r="34.837" transform="translate(0 0)" fill="#48b02c"/>
    <path id="Path_8351" data-name="Path 8351" d="M38.471,8.9c-.03.032-.06.064-.091.095L18.341,29.037a3.45,3.45,0,0,1-1.494.879,3.512,3.512,0,0,1-3.481-.86L1.532,17.222a3.5,3.5,0,0,1,0-4.927h0a3.491,3.491,0,0,1,4.927,0l9.384,9.384L35.771,1.75a3.5,3.5,0,0,1,4.926,0h0a3.5,3.5,0,0,1,0,4.926L38.471,8.9Z" transform="translate(13.723 19.437)" fill="#fff" fill-rule="evenodd"/>
  </g>
</svg>
