<svg xmlns="http://www.w3.org/2000/svg" width="96" height="96" viewBox="0 0 96 96">
  <g id="iconfinder_4_1586491" transform="translate(-0.5 -0.5)">
    <circle id="Ellipse_75" data-name="Ellipse 75" cx="48" cy="48" r="48" transform="translate(0.5 0.5)" fill="#50af00"/>
    <path id="Path_233" data-name="Path 233" d="M32.9,66.2H26.2a1.685,1.685,0,0,1-1.7-1.7V47.6a1.685,1.685,0,0,1,1.7-1.7h6.7a1.685,1.685,0,0,1,1.7,1.7V64.5A1.828,1.828,0,0,1,32.9,66.2Z" fill="#fff"/>
    <path id="Path_234" data-name="Path 234" d="M38.5,48.2c3.8-2.5,4.9-7.5,7.7-11,1.2-1.5,2.9-2.7,4.2-4.2a11.6,11.6,0,0,0,3-7.2,1.532,1.532,0,0,1,2.4-1.1c3,1.9,4.6,5.8,3.3,9-.8,2-2.6,3.7-3,5.9a.949.949,0,0,0,.4,1.1.749.749,0,0,0,.5.1c2.3.2,4.6.3,6.9.5a20.883,20.883,0,0,1,5,.8,5.724,5.724,0,0,1,3.5,3.1A2.97,2.97,0,0,1,70.6,49a4.688,4.688,0,0,1,1.7,3.4,3.181,3.181,0,0,1-2.3,3c1,1.7,2,3.8.8,5.4-.3.5-.9.9-1.1,1.4-.7,1.4.6,3.4-.7,4.5a3.139,3.139,0,0,1-1.6.6c-5.5.9-11.2,1.6-16.7.4-4.1-.9-8-2.9-12.1-2.6" fill="#fff"/>
  </g>
</svg>
