<svg xmlns="http://www.w3.org/2000/svg" width="6.674" height="9.376" viewBox="0 0 6.674 9.376">
  <g id="Page-1" transform="translate(-5.94 -4)">
    <g id="Group" transform="translate(5.94 4)">
      <path id="Shape" d="M9.84,7.616l-.012,5.21a.552.552,0,1,1-1.1,0L8.737,7.6H8.725l-1.8,1.8a.579.579,0,0,1-.819-.819L8.867,5.824a.579.579,0,0,1,.819,0l2.758,2.758a.579.579,0,1,1-.819.819ZM5.968,4.552A.552.552,0,0,1,6.519,4h5.516a.552.552,0,0,1,0,1.1H6.519A.552.552,0,0,1,5.968,4.552Z" transform="translate(-5.94 -4)" fill="#3a3a3a"/>
    </g>
  </g>
</svg>
