<svg xmlns="http://www.w3.org/2000/svg" width="40.993" height="24.373" viewBox="0 0 40.993 24.373">
  <g id="logo-mark" transform="translate(0 0)">
    <path id="Path" d="M21.833,11.274A30.459,30.459,0,0,1,11.626,8.849,25.946,25.946,0,0,1,4.556,4c-.936,2.8-.7,5.036.8,6.714Q4.158,15.82,7.6,17.848c.656,4.1,3.231,5.968,7.725,5.548a27.2,27.2,0,0,0,6.508-1.539Z" transform="translate(-3.074 -3.074)" fill="#f8f8f8"/>
    <path id="Path-2" data-name="Path" d="M5.539,4.886c-.328-.28-.656-.606-.983-.886-.936,2.8-.7,5.036.8,6.714Q4.158,15.82,7.6,17.848c.656,4.1,3.231,5.968,7.725,5.548a27.2,27.2,0,0,0,6.508-1.539V20.832a29.644,29.644,0,0,1-5.01,1.026c-4.495.42-7.07-1.445-7.725-5.548Q5.656,14.281,6.85,9.175a5.519,5.519,0,0,1-1.311-4.29Z" transform="translate(-3.074 -3.074)" fill="#f1f1f1"/>
    <path id="Path-3" data-name="Path" d="M97,11.274a30.739,30.739,0,0,0,10.213-2.425A25.013,25.013,0,0,0,114.24,4c.984,2.8.749,5.036-.75,6.714q1.195,5.106-2.249,7.134c-.656,4.1-3.233,5.968-7.73,5.548A27.228,27.228,0,0,1,97,21.858Z" transform="translate(-74.535 -3.074)" fill="#f8f8f8"/>
    <path id="Path-4" data-name="Path" d="M113.3,4.886c.328-.28.656-.606.937-.886.984,2.8.749,5.036-.75,6.714q1.195,5.106-2.249,7.134c-.656,4.1-3.233,5.968-7.73,5.548A27.228,27.228,0,0,1,97,21.858V20.832a28.745,28.745,0,0,0,5.013,1.026c4.451.42,7.074-1.445,7.73-5.548q3.373-2.028,2.249-7.134a5.7,5.7,0,0,0,1.312-4.29Z" transform="translate(-74.535 -3.074)" fill="#f1f1f1"/>
    <path id="Path-5" data-name="Path" d="M5.315,10.422a.822.822,0,0,1-.306-.061C.543,8.522-.978,5.125.612.536A.8.8,0,0,1,1.927.226,25.371,25.371,0,0,0,8.808,4.937.793.793,0,0,1,9.186,6a.806.806,0,0,1-1.065.377A27.354,27.354,0,0,1,1.778,2.253c-.706,3.152.536,5.278,3.843,6.639a.795.795,0,0,1-.306,1.53Z" transform="translate(0 0)" fill="#2f2f2f"/>
    <path id="Path-6" data-name="Path" d="M10.931,38.727a.779.779,0,0,1-.159-.018,7.144,7.144,0,0,1-4.833-2.931c-.984-1.548-1.2-3.619-.627-6.156a.776.776,0,0,1,.94-.6.794.794,0,0,1,.592.95c-.471,2.105-.331,3.769.417,4.943a5.666,5.666,0,0,0,3.83,2.237.8.8,0,0,1-.159,1.574Z" transform="translate(-3.842 -22.284)" fill="#2f2f2f"/>
    <path id="Path-7" data-name="Path" d="M23.307,67.179c-4.13,0-6.642-2.146-7.3-6.264a.791.791,0,0,1,1.562-.247c.59,3.706,2.77,5.247,6.827,4.875a.791.791,0,1,1,.148,1.575Q23.9,67.179,23.307,67.179Z" transform="translate(-12.294 -46.104)" fill="#2f2f2f"/>
    <path id="Path-8" data-name="Path" d="M140.956,10.422a.8.8,0,0,1-.739-.491.792.792,0,0,1,.433-1.038c3.322-1.364,4.556-3.489,3.818-6.635a26.621,26.621,0,0,1-6.323,4.115A.809.809,0,0,1,137.078,6a.793.793,0,0,1,.38-1.059,24.4,24.4,0,0,0,6.84-4.7.8.8,0,0,1,1.32.3c1.643,4.587.138,7.988-4.355,9.833A.825.825,0,0,1,140.956,10.422Z" transform="translate(-105.271 0)" fill="#2f2f2f"/>
    <path id="Path-9" data-name="Path" d="M143.779,38.727a.784.784,0,0,1-.762-.636.792.792,0,0,1,.607-.937,5.681,5.681,0,0,0,3.848-2.245c.742-1.172.882-2.833.414-4.935a.794.794,0,0,1,.588-.95.767.767,0,0,1,.933.6c.565,2.535.354,4.6-.625,6.147a7.137,7.137,0,0,1-4.846,2.939A.767.767,0,0,1,143.779,38.727Z" transform="translate(-109.882 -22.284)" fill="#2f2f2f"/>
    <path id="Path-10" data-name="Path" d="M122.957,67.18q-.6,0-1.24-.061a.791.791,0,1,1,.148-1.574c4.06.372,6.236-1.169,6.827-4.874a.791.791,0,0,1,1.562.247C129.6,65.033,127.086,67.18,122.957,67.18Z" transform="translate(-92.977 -46.104)" fill="#2f2f2f"/>
    <path id="Path-11" data-name="Path" d="M60.748,15H38.875a.827.827,0,0,0-.875.876v18.4a.827.827,0,0,0,.875.876H60.748a.827.827,0,0,0,.875-.876v-18.4A.827.827,0,0,0,60.748,15Z" transform="translate(-29.199 -11.526)" fill="#ff6363" stroke="#2f2f2f" stroke-width="1.5"/>
    <rect id="Rectangle" width="7.874" height="6.716" transform="translate(16.675 3.706)" fill="#df4d4d" stroke="#2f2f2f" stroke-width="1.5"/>
  </g>
</svg>
